<?xml version="1.0" encoding="UTF-8" standalone="no"?>
<svg
   xmlns:dc="http://purl.org/dc/elements/1.1/"
   xmlns:cc="http://creativecommons.org/ns#"
   xmlns:rdf="http://www.w3.org/1999/02/22-rdf-syntax-ns#"
   xmlns:svg="http://www.w3.org/2000/svg"
   xmlns="http://www.w3.org/2000/svg"
   xmlns:sodipodi="http://sodipodi.sourceforge.net/DTD/sodipodi-0.dtd"
   xmlns:inkscape="http://www.inkscape.org/namespaces/inkscape"
   version="1.1"
   id="svg3767"
   xml:space="preserve"
   width="908.99738"
   height="908.99738"
   viewBox="0 0 908.99736 908.99738"
   sodipodi:docname="unifed-with-text.svg"
   inkscape:version="0.92.5 (2060ec1f9f, 2020-04-08)"><sodipodi:namedview
   pagecolor="#ffffff"
   bordercolor="#666666"
   borderopacity="1"
   objecttolerance="10"
   gridtolerance="10"
   guidetolerance="10"
   inkscape:pageopacity="0"
   inkscape:pageshadow="2"
   inkscape:window-width="2560"
   inkscape:window-height="1440"
   id="namedview21"
   showgrid="false"
   inkscape:zoom="1.0385068"
   inkscape:cx="431.38859"
   inkscape:cy="454.49869"
   inkscape:window-x="0"
   inkscape:window-y="0"
   inkscape:window-maximized="0"
   inkscape:current-layer="flowRoot823" />
	<metadata
   id="metadata3773">
		<rdf:RDF>
			<cc:Work
   rdf:about="">
				<dc:format>image/svg+xml</dc:format>
				<dc:type
   rdf:resource="http://purl.org/dc/dcmitype/StillImage" />
				<dc:title />
			</cc:Work>
		</rdf:RDF>
	</metadata>
	<defs
   id="defs3771"><style
     id="style3899">.cls-1{fill:#5b5b5b;}.cls-2{fill:#fefefe;}</style></defs>
	<g
   id="g3775"
   transform="matrix(1.3333333,0,0,-1.3333333,-92.365917,960.90378)">
		<g
   id="g3933"
   transform="matrix(2.7510218,0,0,-2.7510218,105.08324,556.14328)">
			<path
   style="fill:#ffffff;fill-opacity:1;stroke-width:1.06389332"
   d="m 15.705374,-59.901369 c -6.9578703,0 -13.4049867,1.574838 -18.777646,6.202774 -8.670736,7.489811 -11.893967,17.096766 -8.787396,28.001671 3.1065685,10.904906 10.6706663,17.3413832 21.894741,19.3095883 4.064076,0.723465 8.181233,0.350899 12.27722,0.350899 1.46817,0.01063 1.755403,0.4469 1.063882,1.6810147 a 13.628474,13.628474 0 0 0 -0.606487,1.255571 92.984284,92.984284 0 0 0 -8.628187,35.214543 94.122647,94.122647 0 0 0 9.170776,45.747388 c 0.766002,1.57454 0.191386,1.72361 -1.191673,1.72361 -3.032086,0.0107 -6.085415,-0.26559 -9.096228,0.38338 -11.4581405,2.43632 -19.011794,9.27682 -21.5651435,20.67113 -2.4788675,11.05386 1.1600672,20.33093 10.1180443,27.38454 5.31947,4.18111 11.4898222,5.43655 18.0859662,5.43655 h 93.101237 c 31.23592,-0.0141 62.46115,-0.007 93.67578,0.0213 11.13895,0 19.66112,-4.5639 25.16146,-14.34108 8.37286,-14.90516 -0.51111,-34.79993 -17.16106,-38.73634 -4.72369,-1.11708 -9.46834,-0.68117 -14.21329,-0.80883 -2.55334,-0.0745 -2.55322,-0.0107 -1.48933,-2.2662 a 95.11207,95.11207 0 0 0 7.44717,-57.673167 93.941785,93.941785 0 0 0 -7.33056,-23.182261 c -1.14896,-2.5107837 -1.11713,-2.5111387 1.53193,-2.5111387 1.71288,0 3.44731,0.08502 5.14954,-0.07455 11.21344,-1.0000571 19.39467,-6.5640093 23.55446,-17.0220833 4.05345,-10.245294 2.03211,-19.777791 -5.3194,-28.012321 -5.60672,-6.330167 -12.92603,-8.755981 -21.27761,-8.755981 h -52.99274 z m 95.303016,53.9357503 a 42.811071,42.811071 0 0 1 1.607,0.03568 42.779155,42.779155 0 1 1 -4.69161,85.4091287 C 84.081922,77.85144 66.197955,56.95707 68.166172,33.668447 A 42.811071,42.811071 0 0 1 111.00839,-5.9656187 Z"
   id="path3986" />
			<path
   class="cls-2"
   d="M 84.018145,-5.6000887 C 79.687395,-2.734292 75.777215,0.72113994 72.400459,4.666479 58.240957,21.367211 56.689424,45.370483 68.581063,63.75512 c 9.447388,14.3732 22.958831,22.20345 40.172627,23.05457 12.76672,0.63833 25.65047,0.15957 38.49169,0.20214 h 39.28954 c 0,0 0.9407,-0.0597 1.23857,0.77018 0.2236,0.62769 -0.36615,1.19802 -0.36615,1.19802 -8.90387,10.220906 -8.75769,25.48556 0.34029,35.53406 l 1.06386,1.15965 c -0.45747,0.60641 -1.06386,0.37236 -1.51073,0.37236 -26.39518,0 -52.79038,0.12765 -79.18558,-0.0958 C 94.027965,125.76488 80.216266,122.02102 67.963861,115.0667 25.292404,91.82486 9.1147023,38.676999 31.599985,-4.397904 c 0.376072,-1.0686697 1.411352,-1.7617467 2.542698,-1.7022307 h 48.588029 c 0.488791,-0.08664 0.98515,0.10616 1.287289,0.500032 z"
   id="path3988"
   style="fill:#6d6d6d;fill-opacity:1;stroke-width:1.06389332" />
			<path
   class="cls-2"
   d="m 138.03205,79.58585 a 69.770129,69.770129 0 0 0 11.8305,-11.12832 c 18.24575,-22.77796 14.05402,-54.822432 -9.46866,-72.34475 -9.13884,-6.78764 -19.55438,-9.660152 -30.85293,-9.649514 q -36.41708,0 -72.834128,0 c -0.531952,0 -1.063903,0 -1.58521,0 -0.521307,0 -1.361788,0.255334 -1.649027,-0.319176 -0.287257,-0.574503 0.478744,-0.978783 0.829836,-1.404338 a 26.820752,26.820752 0 0 0 6.71315,-19.150083 26.597335,26.597335 0 0 0 -6.73444,-16.373316 c -0.393637,-0.436198 -0.755356,-0.904314 -1.12772,-1.361788 0,0 0,-0.117024 0,-0.212757 0.361719,-0.372366 0.851108,-0.212759 1.287307,-0.212759 26.459034,0 52.928678,-0.361712 79.387712,0.159569 21.80984,0.436194 40.94928,8.511148 57.19494,23.139678 a 86.547728,86.547728 0 0 1 26.44839,43.619605 c 5.68118,22.277929 3.04273,43.619629 -7.51109,64.067659 -0.59578,1.15964 -1.44689,1.13837 -2.44696,1.13837 h -49.48167 z"
   id="path3990"
   style="fill:#3f3f40;fill-opacity:1;stroke-width:1.06389332" />
			<path
   class="cls-2"
   d="m 148.78799,-52.549706 h 2.1278 c 17.64998,0 35.3106,0 52.96062,0 a 19.515776,19.515776 0 0 1 0.78727,39.02361 c -3.19169,0.10638 -6.38338,0 -9.52183,0 a 2.3724823,2.3724823 0 0 1 -2.27675,-1.21284 97.005799,97.005799 0 0 0 -43.41749,-37.236268 c -0.0955,0.01057 -0.17007,-0.117025 -0.65962,-0.574502 z"
   id="path3994"
   style="fill:#6d6d6d;fill-opacity:1;stroke-width:1.06389332" />
			<path
   class="cls-2"
   d="m 72.613218,126.08865 h -9.106941 c -15.213659,0 -30.416691,0 -45.619723,0 A 19.522444,19.522444 0 0 1 17.418437,87.05438 c 2.978897,-0.0638 5.957812,0 8.926064,0 a 2.9257068,2.9257068 0 0 1 2.883162,1.57456 96.314267,96.314267 0 0 0 30.065635,29.99118 c 4.276832,2.65973 8.745186,5.05349 13.31992,7.46853 z"
   id="path3996"
   style="fill:#3f3f40;fill-opacity:1;stroke-width:1.06389332" />
			<path
   class="cls-2"
   d="m 33.58962,-32.718734 a 19.533082,19.533082 0 1 1 -19.458609,-19.82033 19.501165,19.501165 0 0 1 19.458609,19.82033 z"
   id="path3998"
   style="fill:#3f3f40;fill-opacity:1;stroke-width:1.06389332" />
			<path
   class="cls-2"
   d="m 188.25845,106.50236 a 19.533082,19.533082 0 1 1 19.7033,19.57565 19.511805,19.511805 0 0 1 -19.7033,-19.57565 z"
   id="path4000"
   style="fill:#6d6d6d;fill-opacity:1;stroke-width:1.06389332" />
		<path
   class="cls-2"
   d="m 152.35754,87.0358 h 2.1278 52.96062 c 10.774,-0.21433 19.6826,8.344352 19.89996,19.11829 0.21735,10.77394 -8.33881,19.68496 -19.11269,19.90534 l -27.61089,-0.003 c 0,0 -9.71915,-30.679788 -27.60518,-38.44605 -0.0955,0.0106 -0.17007,-0.11703 -0.65962,-0.57451 z"
   id="path3994-6"
   style="fill:#6d6d6d;fill-opacity:1;stroke-width:1.06389332" /><path
   class="cls-2"
   d="M 68.624995,-13.512674 H 59.518055 13.89833 C 3.2691098,-13.598114 -5.3383232,-22.17159 -5.4657887,-32.800383 -5.5932541,-43.429176 2.8060986,-52.206608 13.430213,-52.546924 c 2.978897,-0.0638 22.705199,0 25.67345,0 0,0 9.538631,27.291556 16.201412,31.565719 4.276831,2.659731 8.745185,5.05349 13.31992,7.468531 z"
   id="path3996-7"
   style="fill:#3f3f3f;fill-opacity:1;stroke-width:1.06389332" /><g
   aria-label="Unifed"
   transform="matrix(0.27262598,0,0,0.27262598,-66.145423,-65.261767)"
   style="font-style:normal;font-weight:normal;font-size:160px;line-height:1.25;font-family:sans-serif;letter-spacing:0px;word-spacing:0px;fill:#000000;fill-opacity:1;stroke:none"
   id="flowRoot823"><path
     id="path841"
     style="font-style:normal;font-variant:normal;font-weight:bold;font-stretch:normal;font-size:200px;font-family:'Roboto Mono';-inkscape-font-specification:'Roboto Mono Bold';text-align:center;text-anchor:middle"
     d="m 901.47656,873.29083 v 2.05078 q 0,11.52344 2.83203,21.38672 2.83203,9.76562 8.20313,16.89453 5.27344,7.12891 12.89062,11.23047 7.71485,4.0039 17.38282,4.0039 8.88671,0 15.625,-3.41796 6.73828,-3.41797 11.71875,-9.57032 l 1.36718,11.03516 h 24.51172 v -150 h -27.24609 v 53.80859 q -4.88281,-5.46875 -11.23047,-8.39843 -6.25,-3.02735 -14.55078,-3.02735 -9.86328,0 -17.57813,3.90625 -7.61718,3.90625 -12.98828,11.03516 -5.37109,7.1289 -8.20312,17.08984 -2.73438,9.96094 -2.73438,21.97266 z m 27.14844,2.05078 v -2.05078 q 0,-6.64063 1.17187,-12.40235 1.17188,-5.85937 3.71094,-10.2539 2.53906,-4.29688 6.54297,-6.73828 4.10156,-2.53907 9.86328,-2.53907 6.9336,0 11.52344,3.02735 4.58984,2.92969 7.32422,8.30078 v 42.77344 q -2.73438,5.27343 -7.42188,8.30078 -4.58984,3.02734 -11.62109,3.02734 -5.76172,0 -9.76563,-2.4414 -4.0039,-2.44141 -6.54296,-6.73829 -2.53907,-4.19921 -3.71094,-9.86328 -1.07422,-5.76172 -1.07422,-12.40234 z m -93.06641,53.51562 q 15.33203,0 26.5625,-5.95703 11.23047,-5.95703 16.40625,-13.28125 l -13.57422,-14.64843 q -4.6875,6.05468 -12.20703,9.08203 -7.51953,3.02734 -15.52734,3.02734 -5.66406,0 -10.44922,-1.75781 -4.78516,-1.75781 -8.49609,-4.98047 -3.61328,-3.125 -5.76172,-6.93359 -2.14844,-3.90625 -3.51563,-10.25391 v -0.29297 h 71.67969 V 871.3377 q 0,-11.62109 -3.22266,-21.1914 -3.22265,-9.66797 -9.375,-16.50391 -6.25,-6.83594 -15.23437,-10.54687 -8.88672,-3.8086 -20.3125,-3.8086 -11.03516,0 -20.41016,4.00391 -9.375,4.0039 -16.21093,11.23047 -6.83594,7.22656 -10.64454,17.28515 -3.80859,9.96094 -3.80859,22.07032 v 3.90625 q 0,10.64453 3.80859,20.01953 3.90625,9.27734 11.03516,16.11328 7.12891,6.93359 17.08984,10.9375 9.96094,4.0039 22.16797,4.0039 z m -3.22265,-87.59765 q 5.17578,0 9.08203,1.66015 4.0039,1.5625 6.73828,4.29688 2.73437,2.83203 4.29687,6.64062 1.5625,3.8086 1.5625,8.10547 v 2.14844 h -44.53125 q 0.97657,-5.17578 2.92969,-9.375 1.95313,-4.19922 4.88281,-7.22656 2.83204,-3.02735 6.64063,-4.58985 3.80859,-1.66015 8.39844,-1.66015 z m -141.79688,85.64453 h 27.2461 v -85.64453 h 38.08593 v -20.01953 h -38.08593 v -5.76172 q 0,-4.6875 1.17187,-8.39844 1.26953,-3.71094 3.80859,-6.25 2.83204,-3.02734 7.61719,-4.58984 4.78516,-1.5625 11.6211,-1.5625 6.34765,0 11.03515,0.58593 4.6875,0.58594 8.39844,1.36719 l 1.75781,-21.28906 q -3.32031,-0.58594 -6.44531,-1.07422 -3.02734,-0.48828 -6.05469,-0.87891 -3.02734,-0.39062 -6.25,-0.58593 -3.125,-0.29297 -6.54297,-0.29297 -10.83984,0 -19.6289,2.83203 -8.78907,2.73437 -14.94141,8.20312 -6.15234,5.46875 -9.47266,13.47657 -3.32031,8.00781 -3.32031,18.45703 v 5.76172 h -27.73437 v 20.01953 h 27.73437 z M 551.47656,821.24005 v 22.16797 h 30.07813 v 61.42578 h -30.07813 v 22.07031 h 86.13281 V 904.8338 h -28.61328 v -83.59375 z m 28.125,-27.05078 q 0,3.125 1.07422,5.85937 1.17188,2.63672 3.22266,4.49219 2.05078,1.95312 4.88281,3.02734 2.92969,1.07422 6.44531,1.07422 7.22656,0 11.42578,-4.00391 4.29688,-4.10156 4.29688,-10.44921 0,-6.34766 -4.29688,-10.35157 -4.19922,-4.10156 -11.42578,-4.10156 -3.51562,0 -6.44531,1.07422 -2.83203,1.07422 -4.88281,2.92969 -2.05078,1.95312 -3.22266,4.6875 -1.07422,2.63672 -1.07422,5.76172 z M 424.23047,926.90411 h 27.24609 v -75.09766 q 1.36719,-2.14843 3.02735,-3.90625 1.66015,-1.75781 3.71093,-3.02734 2.53907,-1.75781 5.76172,-2.63672 3.32031,-0.87891 7.22656,-0.87891 4.6875,0 8.39844,0.97657 3.71094,0.8789 6.34766,3.22265 2.63672,2.34375 4.0039,6.44532 1.46485,4.0039 1.46485,10.2539 v 64.64844 h 27.14844 v -65.03906 q 0,-11.52344 -2.73438,-19.53125 -2.63672,-8.10547 -7.42187,-13.28125 -4.88282,-5.07813 -11.52344,-7.42188 -6.64063,-2.34375 -14.64844,-2.34375 -6.25,0 -11.81641,1.75781 -5.5664,1.75782 -10.2539,5.07813 -2.73438,1.95312 -5.17578,4.39453 -2.44141,2.44141 -4.49219,5.37109 l -1.66016,-14.64843 h -24.60937 z m -26.26953,-142.1875 h -27.2461 l -0.0976,94.23828 q -0.0977,6.93359 -1.46485,12.20703 -1.36718,5.27344 -4.10156,8.78906 -2.53906,3.41797 -6.44531,5.17579 -3.8086,1.66015 -8.78906,1.66015 -4.58985,0 -8.10547,-1.5625 -3.51563,-1.66015 -5.95703,-4.88281 -2.63672,-3.51563 -4.00391,-8.88672 -1.26953,-5.37109 -1.36719,-12.5 l -0.0976,-94.23828 h -27.44141 l -0.0977,94.23828 q 0,11.91406 3.32032,21.28906 3.41796,9.27735 9.57031,15.625 6.15234,6.34766 14.74609,9.66797 8.69141,3.32031 19.4336,3.32031 11.42578,0 20.3125,-3.32031 8.98437,-3.32031 15.23437,-9.76562 6.15234,-6.34766 9.375,-15.625 3.32031,-9.27735 3.32031,-21.19141 z" /></g></g>
	</g>
</svg>